<svg width="178" height="181" viewBox="0 0 178 181" fill="none" xmlns="http://www.w3.org/2000/svg">
<path d="M134.999 170.733C119.83 177.328 104.125 180.75 87.8852 180.997C83.9735 181.061 80.1901 180.233 76.535 178.513C56.4542 169.082 38.6257 158.983 23.0496 148.217C11.0356 139.916 7.31861 122.243 3.40245 108.673C-0.314576 95.8027 -0.765919 83.248 0.986395 70.1307C1.5351 66.051 2.77853 62.2319 4.7167 58.6736C10.9206 47.2577 18.0626 35.1787 26.1427 22.4364C28.134 19.2989 30.5235 17.1264 33.3113 15.9189C38.9576 13.4583 45.5553 11.0845 53.1045 8.7977C64.1228 5.45892 74.0791 2.84277 82.9734 0.949273C87.133 0.0619799 91.4916 -0.203293 96.0494 0.153454C103.386 0.720589 111.333 1.76796 119.892 3.29557C127.582 4.66767 134.406 7.87839 140.362 12.9277C149.575 20.7396 158.54 28.4462 167.257 36.0477C171.098 39.3956 173.757 43.6994 175.235 48.9591C178.528 60.622 177.758 73.8765 177.997 86.1431C178.041 88.5306 177.643 92.0798 176.802 96.7906C174.519 109.569 171.222 121.809 166.912 133.508C163.102 143.881 157.5 155.215 148.964 162.185C144.636 165.716 139.981 168.565 134.999 170.733ZM82.854 49.9608C78.4732 51.7308 73.4021 53.8576 69.7249 56.835C64.4325 61.1343 58.9721 67.0709 53.3434 74.6449C51.4451 77.197 50.7946 79.8177 50.7548 82.9461C50.6486 90.5887 49.945 99.6034 52.8257 106.546C56.41 115.163 64.375 122.682 71.7427 127.704C74.3623 129.497 77.5395 130.398 81.2742 130.407C90.1154 130.435 98.3637 129.927 106.019 128.884C108.355 128.564 110.524 127.709 112.524 126.318C121.976 119.76 132.436 108.934 132.237 97.1474C132.038 84.9768 127.445 70.9265 120.237 60.3064C117.595 56.4371 114.555 52.1287 109.856 51.2094C105.386 50.3312 100.736 49.5263 95.9034 48.7945C90.9828 48.0444 86.6329 48.4332 82.854 49.9608Z" fill="#FFF8D3"/>
<path d="M82.854 49.9608C86.6329 48.4332 90.9828 48.0444 95.9034 48.7945C100.736 49.5263 105.386 50.3312 109.856 51.2094C114.555 52.1287 117.595 56.4371 120.237 60.3064C127.445 70.9265 132.038 84.9768 132.237 97.1474C132.436 108.934 121.976 119.76 112.524 126.318C110.524 127.709 108.355 128.564 106.019 128.884C98.3637 129.927 90.1154 130.435 81.2742 130.407C77.5395 130.398 74.3623 129.497 71.7427 127.704C64.375 122.682 56.41 115.163 52.8257 106.546C49.945 99.6034 50.6486 90.5887 50.7548 82.9461C50.7946 79.8177 51.4451 77.197 53.3434 74.6449C58.9721 67.0709 64.4325 61.1343 69.7249 56.835C73.4021 53.8576 78.4732 51.7308 82.854 49.9608Z" fill="#FF9900"/>
</svg>
