<svg width="246" height="213" viewBox="0 0 246 213" fill="none" xmlns="http://www.w3.org/2000/svg">
<path d="M185.778 41.3505C148.325 5.86831 68.4365 7.2498 30.0193 35.3908C22.1966 41.1269 14.6686 45.9421 7.43518 49.8363C6.6632 50.2513 5.79374 50.4599 4.91385 50.441C4.03397 50.4222 3.17458 50.1767 2.42171 49.7291C1.66884 49.2814 1.04897 48.6473 0.624102 47.8903C0.199236 47.1333 -0.0156989 46.2799 0.000872192 45.4157C0.000872192 44.9684 0.0544916 44.5211 0.161654 44.0738C1.28684 39.4165 3.79171 35.825 7.67629 33.299C31.024 18.1431 54.0502 4.13176 81.4566 2.0794C124.053 -1.07807 165.123 -5.34063 197.432 28.7601C222.306 55.0461 244.77 89.1863 245.694 126.05C246.364 153.073 242.225 180.74 233.277 209.052C232.393 211.762 230.518 212.946 227.651 212.604L218.971 211.617C216.533 211.354 215.609 210.052 216.198 207.71C219.574 194.501 223.365 181.674 227.571 169.228C237.456 139.785 225.32 100.632 211.175 74.1883C204.852 62.3477 196.387 51.4018 185.778 41.3505Z" fill="#FFB545"/>
<path d="M202.455 205.539C183.005 202.184 157.206 184.424 143.222 171.044C133.202 161.44 123.691 152.152 114.69 143.179C111.502 139.995 112.064 139.127 116.378 140.574C149.49 151.546 181.907 161.111 213.626 169.268C217.404 170.241 218.716 172.57 217.564 176.254L209.849 201.079C208.724 204.71 206.259 206.197 202.455 205.539Z" fill="#FFB545"/>
<path d="M177.861 148.389C159.537 143.692 139.203 141.048 121.722 134.378C118.668 133.194 118.775 132.457 122.044 132.167C151.62 129.484 181.933 125.103 212.983 119.024C214.751 118.682 215.823 119.367 216.198 121.077C219.038 133.286 220.016 146.008 219.132 159.243C218.998 161.137 218.02 161.756 216.198 161.098C203.62 156.559 191.002 151.744 177.861 148.389Z" fill="#FFB545"/>
<path d="M182.242 50.7046C194.739 65.229 205.871 84.2133 211.215 103.079C211.697 104.763 211.054 105.71 209.286 105.921C180.353 109.355 151.781 118.393 123.531 125.734C117.61 127.286 116.686 125.813 120.758 121.314C141.172 98.764 160.153 75.2934 177.701 50.9019C177.956 50.5529 178.288 50.2653 178.673 50.0608C179.058 49.8563 179.485 49.7402 179.922 49.7212C180.359 49.7022 180.795 49.7809 181.197 49.9512C181.599 50.1215 181.956 50.3791 182.242 50.7046Z" fill="#FFB545"/>
<path d="M13.7041 56.8222C31.3856 46.7972 48.9467 38.6667 67.9945 31.9571C69.334 31.4571 70.2315 31.8913 70.6869 33.2595C80.0501 61.8347 91.7842 89.8179 95.8831 119.774C96.4993 124.3 95.133 124.971 91.7842 121.787C68.959 100.159 42.8921 79.9243 13.5835 61.0847C13.2151 60.8536 12.9138 60.5329 12.7091 60.1535C12.5043 59.7742 12.4031 59.3491 12.4153 58.9199C12.4274 58.4907 12.5524 58.072 12.7783 57.7043C13.0042 57.3367 13.3231 57.0328 13.7041 56.8222Z" fill="#FFB545"/>
<path d="M114.77 111.802C116.19 97.7246 118.99 84.3974 123.169 71.8202C128.031 57.0984 128.996 41.5479 129.679 26.5104C129.759 24.8264 130.644 24.116 132.331 24.3791C146.691 26.7735 159.738 32.2465 171.472 40.798C171.686 40.9525 171.866 41.1487 171.999 41.3746C172.133 41.6004 172.217 41.851 172.247 42.1104C172.277 42.3698 172.253 42.6325 172.175 42.8821C172.096 43.1317 171.967 43.3629 171.793 43.5608C165.685 50.481 159.845 58.0194 154.273 66.1762C141.788 84.3317 129.331 101.501 116.9 117.683C116.777 117.853 116.605 117.982 116.406 118.054C116.207 118.125 115.99 118.137 115.781 118.086C115.571 118.036 115.38 117.926 115.229 117.77C115.078 117.614 114.974 117.419 114.931 117.209C114.636 115.446 114.583 113.644 114.77 111.802Z" fill="#FFB545"/>
<path d="M107.537 112.394C107.349 113.762 106.881 114.999 106.13 116.104C105.934 116.387 105.657 116.609 105.334 116.741C105.011 116.873 104.657 116.91 104.317 116.847C103.977 116.783 103.666 116.623 103.424 116.385C103.181 116.147 103.019 115.843 102.956 115.512C101.241 107.25 99.5266 99.0929 97.8121 91.0414C93.5122 70.6756 84.7116 50.3099 77.1166 31.444C76.3665 29.6284 76.9559 28.4969 78.8848 28.0496C90.7528 25.3131 103.813 23.524 118.065 22.682C119.539 22.5767 120.169 23.2476 119.954 24.6948C115.695 55.296 111.555 84.529 107.537 112.394Z" fill="#FFB545"/>
</svg>
