<svg width="250" height="210" viewBox="0 0 250 210" fill="none" xmlns="http://www.w3.org/2000/svg">
<path d="M63.9285 170.69C102.597 204.844 182.388 200.675 219.8 171.211C227.418 165.205 234.773 160.13 241.866 155.986C242.623 155.544 243.485 155.305 244.365 155.293C245.245 155.281 246.112 155.497 246.88 155.918C247.649 156.339 248.29 156.951 248.741 157.693C249.192 158.434 249.437 159.28 249.45 160.144C249.466 160.591 249.428 161.04 249.337 161.491C248.375 166.185 245.997 169.861 242.203 172.521C219.398 188.483 196.875 203.289 169.557 206.297C127.096 210.939 86.2007 216.632 52.7212 183.68C26.9443 158.278 3.30285 124.942 1.09263 88.1336C-0.519802 61.1507 2.65121 33.3557 10.6056 4.74867C11.3946 2.0093 13.2274 0.760541 16.1042 1.00235L24.8134 1.68553C27.259 1.86341 28.2281 3.13279 27.7208 5.49372C24.8083 18.8123 21.4674 31.764 17.6983 44.3489C8.84627 74.1195 22.3413 112.825 37.4008 138.759C44.1327 150.372 52.9752 161.015 63.9285 170.69Z" fill="#FFFF6C"/>
<path d="M41.5316 7.18361C61.0866 9.8576 87.4897 26.7072 101.933 39.5908C112.281 48.8393 122.11 57.7899 131.419 66.4428C134.717 69.5134 134.185 70.4008 129.823 69.105C96.348 59.2951 63.6177 50.8678 31.6328 43.8229C27.8237 42.9818 26.4304 40.7003 27.4532 36.9786L34.2977 11.8989C35.2955 8.23074 37.7068 6.65896 41.5316 7.18361Z" fill="#FFFF6C"/>
<path d="M68.1046 63.4407C86.5819 67.4951 106.996 69.4283 124.698 75.4844C127.792 76.5611 127.71 77.3011 124.454 77.7045C94.9894 81.4189 64.8476 86.8551 34.0288 94.0132C32.2736 94.4167 31.1788 93.7704 30.7443 92.0743C27.4802 79.9719 26.0589 67.2917 26.4806 54.0338C26.5483 52.1358 27.504 51.4837 29.3476 52.0776C42.0763 56.1747 54.8549 60.5466 68.1046 63.4407Z" fill="#FFFF6C"/>
<path d="M67.1362 161.219C54.1392 147.139 42.3521 128.555 36.3523 109.887C35.8116 108.221 36.4212 107.252 38.1809 106.98C66.9769 102.538 95.2158 92.5084 123.193 84.1858C129.056 82.4277 130.031 83.868 126.118 88.5068C106.503 111.755 88.3532 135.874 71.6675 160.863C71.4245 161.221 71.1021 161.52 70.7247 161.737C70.3472 161.955 69.9245 162.086 69.4883 162.12C69.0521 162.155 68.6138 162.091 68.2064 161.935C67.799 161.779 67.4331 161.534 67.1362 161.219Z" fill="#FFFF6C"/>
<path d="M235.357 149.223C218.036 159.859 200.77 168.597 181.968 175.967C180.647 176.514 179.735 176.111 179.232 174.76C168.877 146.529 156.173 118.972 151.031 89.1769C150.258 84.6755 151.6 83.9573 155.058 87.0223C178.624 107.841 205.381 127.153 235.329 144.959C235.705 145.177 236.018 145.487 236.236 145.859C236.453 146.231 236.569 146.652 236.572 147.081C236.575 147.511 236.465 147.934 236.252 148.309C236.039 148.684 235.731 148.999 235.357 149.223Z" fill="#FFFF6C"/>
<path d="M132.434 97.8039C131.506 111.922 129.174 125.339 125.436 138.054C121.09 152.937 120.669 168.511 120.511 183.564C120.489 185.249 119.631 185.99 117.935 185.786C103.5 183.894 90.2705 178.88 78.245 170.743C78.0254 170.596 77.8391 170.406 77.6979 170.185C77.5566 169.964 77.4635 169.717 77.4243 169.459C77.385 169.201 77.4006 168.937 77.47 168.685C77.5393 168.433 77.661 168.197 77.8273 167.993C83.6903 160.864 89.2639 153.127 94.5482 144.78C106.391 126.2 118.242 108.607 130.1 92.001C130.218 91.8265 130.385 91.6916 130.581 91.613C130.777 91.5343 130.994 91.5153 131.205 91.5583C131.416 91.6013 131.611 91.7044 131.768 91.855C131.924 92.0055 132.034 92.197 132.085 92.4057C132.441 94.1572 132.557 95.9566 132.434 97.8039Z" fill="#FFFF6C"/>
<path d="M139.642 96.9599C139.782 95.5859 140.207 94.3336 140.918 93.203C141.105 92.9131 141.374 92.6817 141.692 92.5383C142.011 92.3949 142.363 92.3459 142.705 92.3974C143.047 92.4489 143.363 92.5986 143.614 92.8276C143.864 93.0566 144.038 93.3547 144.112 93.6839C146.114 101.881 148.112 109.973 150.106 117.96C155.114 138.163 164.62 158.209 172.869 176.799C173.682 178.587 173.133 179.738 171.221 180.253C159.455 183.402 146.465 185.646 132.251 186.984C130.782 187.141 130.13 186.493 130.293 185.039C133.482 154.308 136.599 124.948 139.642 96.9599Z" fill="#FFFF6C"/>
</svg>
