<svg width="354" height="269" viewBox="0 0 354 269" fill="none" xmlns="http://www.w3.org/2000/svg">
<path d="M306.206 14.9372C317.303 13.8962 325.02 23.8037 317.623 33.783C303.503 52.8441 284.334 47.1724 264.488 45.7725C261.413 45.5629 258.372 46.4672 255.917 48.3211C248.354 53.921 243.173 61.3157 240.375 70.5053C240.194 71.0913 240.176 71.7165 240.324 72.312C240.472 72.9075 240.78 73.4503 241.214 73.8807C241.648 74.3111 242.191 74.6125 242.783 74.7516C243.375 74.8907 243.994 74.8623 244.572 74.6693C260.055 69.5481 269.396 74.442 272.597 89.3511C272.718 89.9014 272.97 90.4135 273.331 90.8444C273.692 91.2752 274.151 91.6121 274.67 91.8267C275.19 92.0414 275.754 92.1274 276.315 92.0776C276.877 92.0278 277.419 91.8437 277.896 91.5408C292.834 81.8846 307.024 92.7612 305.602 110.422C305.388 113.055 306.574 114.491 309.158 114.73C322.744 116.022 332.406 123.226 338.144 136.34C338.317 136.737 338.59 137.081 338.936 137.338C339.282 137.595 339.69 137.756 340.12 137.807C340.549 137.858 340.986 137.795 341.388 137.626C341.789 137.457 342.142 137.187 342.412 136.842C356.969 117.961 357.811 100.06 344.937 83.1409C329.075 62.3209 345.541 53.4544 344.296 34.0701C343.467 21.6259 337.255 12.0535 325.66 5.35277C312.691 -2.13768 298.417 -1.76676 282.84 6.46556C282.334 6.72632 281.907 7.12139 281.606 7.60836C281.305 8.09534 281.142 8.65584 281.133 9.22962C281.062 13.9919 281.856 18.6106 283.516 23.0858C283.647 23.4412 283.864 23.7581 284.147 24.0083C284.43 24.2585 284.769 24.4341 285.136 24.5194C285.502 24.6047 285.884 24.5971 286.246 24.4973C286.609 24.3974 286.942 24.2085 287.215 23.9472C292.952 18.5627 299.283 15.5594 306.206 14.9372Z" fill="#E84228"/>
<path d="M226.611 100.551C174.153 163.083 104.196 225.723 17.6665 186.308C13.6358 184.465 9.1546 184.214 4.2229 185.554C3.03738 185.865 2.19571 186.583 1.69781 187.708C-1.43192 194.624 -0.23465 201.157 5.28979 207.308C28.4071 233.082 55.7212 256.989 89.0457 263.666C114.261 268.691 139.05 272.029 163.91 264.922C226.896 246.902 283.765 210.969 323.028 158.021C335.832 140.755 315.275 135.442 303.254 132.894C295.608 131.243 294.043 120.509 291.873 114.551C291.214 112.681 289.92 111.107 288.221 110.108C286.522 109.11 284.527 108.75 282.591 109.094C268.756 111.499 265.662 110.243 257.091 99.2945C247.524 87.0537 235.645 89.7818 226.611 100.551ZM184.36 219.046C200.602 211.173 215.847 204.412 230.097 198.764C235.218 196.73 240.897 195.498 247.133 195.067C251.329 194.756 252.041 196.204 249.266 199.41C243.505 206.015 236.155 211.986 227.216 217.323C205.201 230.497 183.222 237.784 159.429 245.789C147.728 249.702 134.533 250.958 122.157 252.286C111.736 253.399 94.3093 250.743 86.1649 242.163C85.847 241.819 85.6397 241.383 85.5714 240.917C85.503 240.45 85.5769 239.974 85.7829 239.554C85.9889 239.135 86.317 238.791 86.7227 238.571C87.1283 238.35 87.5917 238.264 88.0499 238.322C118.422 241.912 150.526 235.487 184.36 219.046Z" fill="#E84228"/>
</svg>
